<svg width="19" height="16" viewBox="0 0 19 16" fill="none" xmlns="http://www.w3.org/2000/svg">
<path fill-rule="evenodd" clip-rule="evenodd" d="M2.82143 2C2.43958 2 2 2.35906 2 2.96875V8.80246L4.63836 5.27263C4.66702 5.23429 4.69839 5.19806 4.73223 5.16421C5.70855 4.1879 7.29146 4.1879 8.26777 5.16421C8.28854 5.18499 8.30839 5.20667 8.32726 5.22919L11.8982 9.49235L12.9822 8.41421L12.9834 8.41304C13.9598 7.4379 15.5418 7.43829 16.5178 8.41421C16.5418 8.43829 16.5647 8.46358 16.5862 8.48999L17 8.99833V2.96875C17 2.35906 16.5604 2 16.1786 2H2.82143ZM19 2.96875C19 1.40382 17.8086 0 16.1786 0H2.82143C1.19138 0 0 1.40382 0 2.96875V14C0 15.1046 0.89543 16 2 16H17C18.1046 16 19 15.1046 19 14V2.96875ZM17 12.1662L15.076 9.80285C14.8796 9.63357 14.5828 9.6421 14.3964 9.82843L14.3945 9.83034L12.5363 11.6785C12.3377 11.876 12.0655 11.9812 11.7857 11.9685C11.5059 11.9558 11.2443 11.8263 11.0645 11.6117L6.82991 6.55625C6.64673 6.39509 6.37383 6.39068 6.18575 6.54303L2 12.1431V13.0312C2 13.6409 2.43958 14 2.82143 14H16.1786C16.5604 14 17 13.6409 17 13.0312V12.1662Z" fill="#52525B"/>
<path d="M12.5 6.5C13.328 6.5 14 5.8295 14 5C14 4.172 13.328 3.5 12.5 3.5C11.672 3.5 11 4.172 11 5C11 5.8295 11.672 6.5 12.5 6.5Z" fill="#52525B"/>
</svg>
