<svg width="17" height="17" viewBox="0 0 17 17" fill="none" xmlns="http://www.w3.org/2000/svg">
<path fill-rule="evenodd" clip-rule="evenodd" d="M5.00001 1C5.00001 0.447715 5.44772 0 6.00001 0H16C16.5523 0 17 0.447715 17 1V3C17 3.55228 16.5523 4 16 4C15.4477 4 15 3.55228 15 3V2H9.88279L9.61729 4.12403C9.54878 4.67206 9.04899 5.06078 8.50097 4.99228C7.95295 4.92378 7.56423 4.42399 7.63273 3.87597L7.86723 2H6.00001C5.44772 2 5.00001 1.55228 5.00001 1ZM0.256714 0.831035C0.626173 0.420525 1.25846 0.387247 1.66897 0.756706L16.669 14.2567C17.0795 14.6262 17.1128 15.2585 16.7433 15.669C16.3738 16.0795 15.7416 16.1128 15.331 15.7433L8.77719 9.84482L7.99229 16.124C7.92378 16.6721 7.42399 17.0608 6.87597 16.9923C6.32795 16.9238 5.93923 16.424 6.00773 15.876L6.96544 8.21425L0.331044 2.24329C-0.0794662 1.87384 -0.112745 1.24155 0.256714 0.831035Z" fill="#52525B"/>
</svg>
