<svg width="20" height="12" viewBox="0 0 20 12" fill="none" xmlns="http://www.w3.org/2000/svg">
<path d="M13.0492 11.9998C12.497 11.9998 12.0494 11.5522 12.0494 11C12.0494 10.4477 12.497 10.0001 13.0492 10.0001H14.0491C14.5744 10.0001 15.0945 9.89664 15.5798 9.69561C16.0652 9.49459 16.5061 9.19994 16.8776 8.8285C17.249 8.45706 17.5437 8.01609 17.7447 7.53077C17.9457 7.04546 18.0492 6.5253 18.0492 6C18.0492 5.4747 17.9457 4.95454 17.7447 4.46923C17.5437 3.98391 17.249 3.54294 16.8776 3.1715C16.5061 2.80006 16.0652 2.50541 15.5798 2.30439C15.0945 2.10336 14.5744 1.9999 14.0491 1.9999H13.0492C12.497 1.9999 12.0494 1.55225 12.0494 1.00005C12.0494 0.447847 12.497 0.0001988 13.0492 0.000198893L14.0491 0.000199061C15.6319 0.0130892 17.1454 0.650888 18.2601 1.77467C19.3748 2.89845 20.0002 4.41717 20.0002 6C20.0002 7.58283 19.3748 9.10155 18.2601 10.2253C17.1454 11.3491 15.6319 11.9869 14.0491 11.9998H13.0492ZM8.04856 11C8.04856 11.5522 7.60091 11.9998 7.04871 11.9998H6.04886C5.25685 12.0062 4.47139 11.8558 3.7378 11.5572C3.00421 11.2586 2.33701 10.8177 1.77467 10.2599C1.21234 9.70211 0.766 9.03852 0.461409 8.30738C0.156818 7.57625 0 6.79204 0 6C0 5.20796 0.156818 4.42375 0.461409 3.69262C0.766 2.96149 1.21234 2.29789 1.77467 1.74012C2.33701 1.18234 3.00421 0.741428 3.7378 0.442802C4.47139 0.144175 5.25685 -0.00625113 6.04886 0.000198977L7.04871 0.000198851C7.60091 0.000198781 8.04856 0.447847 8.04856 1.00005C8.04856 1.55225 7.60091 1.9999 7.04871 1.9999H6.04886C5.52356 1.9999 5.0034 2.10336 4.51809 2.30439C4.03277 2.50541 3.59181 2.80006 3.22036 3.1715C2.84892 3.54294 2.55427 3.98391 2.35325 4.46923C2.15222 4.95454 2.04876 5.4747 2.04876 6C2.04876 6.5253 2.15223 7.04546 2.35325 7.53077C2.55427 8.01609 2.84892 8.45706 3.22036 8.8285C3.59181 9.19994 4.03277 9.49459 4.51809 9.69561C5.0034 9.89664 5.52356 10.0001 6.04886 10.0001H7.04871C7.60091 10.0001 8.04856 10.4477 8.04856 11ZM14.0484 4.99944C14.601 4.99944 15.0489 5.44739 15.0489 5.99996C15.0489 6.55256 14.6009 7.00052 14.0483 7.00048L6.04953 6.99992C5.49728 6.99988 5.04956 6.55229 5.04937 6.00003C5.04917 5.44748 5.49705 4.99944 6.0496 4.99944H14.0484Z" fill="#52525B"/>
</svg>
