<svg width="19" height="17" viewBox="0 0 19 17" fill="none" xmlns="http://www.w3.org/2000/svg">
<path d="M10 1C10 0.447715 10.4477 0 11 0H18C18.5523 0 19 0.447715 19 1C19 1.55228 18.5523 2 18 2H11C10.4477 2 10 1.55228 10 1Z" fill="#52525B"/>
<path d="M3 15C3 15.5523 3.4477 16 4 16C4.5523 16 5 15.5523 5 15V3.4142L6.2929 4.7071C6.6834 5.0976 7.3166 5.0976 7.7071 4.7071C8.0976 4.3166 8.0976 3.6834 7.7071 3.2929L4.7071 0.29289C4.5196 0.10536 4.2652 0 4 0C3.7348 0 3.4804 0.10536 3.2929 0.29289L0.292897 3.2929C-0.0976325 3.6834 -0.0976325 4.3166 0.292897 4.7071C0.683398 5.0976 1.3166 5.0976 1.7071 4.7071L3 3.4142V15Z" fill="#52525B"/>
<path d="M3 4C3 3.4477 3.4477 3 4 3C4.5523 3 5 3.4477 5 4V13.5858L6.2929 12.2929C6.6834 11.9024 7.3166 11.9024 7.7071 12.2929C8.0976 12.6834 8.0976 13.3166 7.7071 13.7071L4.7071 16.7071C4.5196 16.8946 4.2652 17 4 17C3.7348 17 3.4804 16.8946 3.2929 16.7071L0.292897 13.7071C-0.0976325 13.3166 -0.0976325 12.6834 0.292897 12.2929C0.683398 11.9024 1.3166 11.9024 1.7071 12.2929L3 13.5858V4Z" fill="#52525B"/>
<path d="M10 6C10 5.44772 10.4477 5 11 5H18C18.5523 5 19 5.44772 19 6C19 6.55228 18.5523 7 18 7H11C10.4477 7 10 6.55228 10 6Z" fill="#52525B"/>
<path d="M10 11C10 10.4477 10.4477 10 11 10H18C18.5523 10 19 10.4477 19 11C19 11.5523 18.5523 12 18 12H11C10.4477 12 10 11.5523 10 11Z" fill="#52525B"/>
<path d="M10 16C10 15.4477 10.4477 15 11 15H18C18.5523 15 19 15.4477 19 16C19 16.5523 18.5523 17 18 17H11C10.4477 17 10 16.5523 10 16Z" fill="#52525B"/>
</svg>
