<svg width="18" height="17" viewBox="0 0 18 17" fill="none" xmlns="http://www.w3.org/2000/svg">
<path d="M0 1C0 0.447715 0.447715 0 1 0H17C17.5523 0 18 0.447715 18 1C18 1.55228 17.5523 2 17 2H1C0.447716 2 0 1.55228 0 1ZM0 16C0 15.4477 0.447715 15 1 15H17C17.5523 15 18 15.4477 18 16C18 16.5523 17.5523 17 17 17H1C0.447716 17 0 16.5523 0 16ZM8 11C8 10.4477 8.44771 10 9 10H17C17.5523 10 18 10.4477 18 11C18 11.5523 17.5523 12 17 12H9C8.44772 12 8 11.5523 8 11ZM8 6C8 5.44772 8.44771 5 9 5H17C17.5523 5 18 5.44772 18 6C18 6.55228 17.5523 7 17 7H9C8.44772 7 8 6.55228 8 6ZM3.44094 8.01083C3.73691 8.26979 3.73691 8.73021 3.44094 8.98917L1.07803 11.0567C0.657748 11.4245 0 11.126 0 10.5676V6.43245C0 5.874 0.657749 5.57553 1.07803 5.94327L3.44094 8.01083Z" fill="#52525B"/>
</svg>
