<svg width="220" height="124" viewBox="0 0 220 124" fill="none" xmlns="http://www.w3.org/2000/svg">
<path d="M134.675 8.2093L82.6748 59M106.667 3C115.752 3 123.55 8.38033 126.906 16.0563C127.268 16.0351 127.633 16.0233 128 16.0233C137.941 16.0233 146 23.8947 146 33.6047C146 43.3146 137.941 51.186 128 51.186H88.6667C80.5665 51.186 74 44.7723 74 36.8605C74.0003 30.2867 78.5349 24.7506 84.7148 23.0652C85.4649 11.861 95.006 3.00002 106.667 3Z" stroke="#BDBDBD" stroke-width="2" stroke-linecap="round"/>
<path d="M26.9469 77.2188V94.582H25.4625V77.2188H26.9469ZM11.8102 88.9766C12.3473 88.9766 12.9723 88.9766 13.6461 88.9668V80.7148H12.1813V79.4453H20.1695V80.7148H18.7047V88.7617C19.359 88.7031 19.984 88.6445 20.5602 88.5664L20.6578 89.6992C17.9137 90.207 14.2711 90.2949 12.0055 90.2852L11.8102 88.9766ZM15.0523 88.9375C15.775 88.918 16.5367 88.8887 17.2789 88.8496V80.7148H15.0523V88.9375ZM19.6617 85.207V83.8203H22.0836V77.6484H23.5484V93.6641H22.0836V85.207H19.6617ZM43.007 77.2188V94.6211H41.4641V77.2188H43.007ZM29.3352 84.6211C29.3449 80.9297 31.1809 78.5762 33.7688 78.5664C36.3469 78.5762 38.2121 80.9297 38.2023 84.6211C38.2121 88.3223 36.3469 90.666 33.7688 90.6562C31.1809 90.666 29.3449 88.3223 29.3352 84.6211ZM30.8195 84.6211C30.8195 87.4434 32.0305 89.2988 33.7688 89.2891C35.5168 89.2988 36.718 87.4434 36.718 84.6211C36.718 81.7988 35.5168 79.9434 33.7688 79.9336C32.0305 79.9434 30.8195 81.7988 30.8195 84.6211ZM51.5867 82.5508C51.5965 85.5 53.7352 88.498 56.2938 89.6016L55.4344 90.8125C53.4031 89.8945 51.6551 87.8926 50.8445 85.4902C50.034 88.0391 48.2762 90.2461 46.2938 91.2422L45.3758 90.0312C47.866 88.8398 50.034 85.5586 50.0438 82.5508V80.2852H45.9422V79.0156H55.7273V80.2852H51.5867V82.5508ZM58.1492 94.582V77.2188H59.6922V94.582H58.1492ZM77.9398 85.2852V86.4961H62.0414V85.2852H77.9398ZM63.9555 89.0352V87.8828H75.9477V91.5742H65.518V93.2344H76.5141V94.3477H63.975V90.5195H74.4242V89.0352H63.9555ZM64.0531 78.8594V77.7461H75.8891V81.3398H65.6352V82.8633H76.2016V83.9766H64.1117V80.2852H74.3461V78.8594H64.0531ZM86.7984 77.5117V79.1719H95.3922V77.5117H96.9156V83.2148H85.275V77.5117H86.7984ZM83.1656 85.9297V84.6602H98.9859V85.9297H91.818V87.6289H96.9547V91.4766H86.6422V93.1758H97.482V94.3867H85.1188V90.3438H95.4508V88.8008H85.0797V87.6289H90.2945V85.9297H83.1656ZM86.7984 82.0234H95.3922V80.3438H86.7984V82.0234ZM114.226 77.2188V94.6211H112.702V85.1875H109.323V83.8984H112.702V77.2188H114.226ZM100.456 80.1094V78.8398H108.269V84.9141H102.038V89.1328C105.036 89.1328 107.204 89.0352 109.734 88.5664L109.851 89.8555C107.243 90.3242 104.988 90.4316 101.843 90.4414H100.515V83.6445H106.784V80.1094H100.456ZM124.446 77.4336C128.304 77.4336 130.569 78.5078 130.579 80.4414C130.569 82.2676 128.587 83.3223 125.169 83.4492V84.7773H132.356V86.0273H116.536V84.7773H123.665V83.4492C120.266 83.3027 118.294 82.2578 118.294 80.4414C118.294 78.5078 120.569 77.4336 124.446 77.4336ZM118.45 88.6836V87.4922H130.325V91.3789H120.013V93.1758H130.852V94.3867H118.489V90.2461H128.821V88.6836H118.45ZM119.895 80.4414C119.876 81.6328 121.565 82.2773 124.446 82.2969C127.327 82.2773 129.007 81.6328 129.016 80.4414C129.007 79.2988 127.327 78.625 124.446 78.6055C121.565 78.625 119.876 79.2988 119.895 80.4414ZM146.352 78.8398C146.361 81.291 149.545 83.4004 152.68 83.8398L152.055 85.0898C149.359 84.6406 146.684 83.1465 145.57 81.0176C144.457 83.166 141.791 84.6406 139.086 85.0898L138.461 83.8398C141.596 83.4004 144.77 81.3301 144.77 78.8398V77.8438H146.352V78.8398ZM137.641 88.293V87.0039H153.461V88.293H146.273V94.582H144.77V88.293H137.641ZM162.202 87.4141V89.582H165.366V87.4141H166.792V94.3477H160.757V87.4141H162.202ZM159.019 81.9844C159.009 79.6113 160.884 78 163.53 78C165.864 78 167.632 79.3184 167.964 81.3203H171.597V77.2188H173.14V86.418H171.597V82.5898H167.974C167.671 84.6406 165.884 85.9883 163.53 85.9883C160.884 85.9883 159.009 84.3672 159.019 81.9844ZM160.484 81.9844C160.484 83.5762 161.743 84.709 163.53 84.7188C165.279 84.709 166.538 83.5762 166.538 81.9844C166.538 80.4023 165.279 79.2891 163.53 79.2891C161.743 79.2891 160.484 80.4023 160.484 81.9844ZM162.202 93.1367H165.366V90.7539H162.202V93.1367ZM167.027 93.3125C169.116 92.4434 170.22 90.5391 170.23 88.7812V87.2969H171.753V88.7812C171.734 90.6074 172.837 92.5312 174.956 93.3125L174.155 94.4844C172.554 93.8496 171.509 92.6191 170.972 91.1836C170.425 92.5996 169.361 93.8301 167.827 94.4844L167.027 93.3125ZM180.098 78.5664C182.462 78.5762 184.171 80.6074 184.405 83.8594H188.302V77.2188H189.825V94.6211H188.302V85.1289H184.425C184.259 88.5371 182.52 90.666 180.098 90.6562C177.53 90.666 175.733 88.3223 175.743 84.6211C175.733 80.9297 177.53 78.5762 180.098 78.5664ZM177.208 84.6211C177.218 87.4434 178.389 89.2988 180.098 89.2891C181.798 89.2988 182.989 87.4434 182.989 84.6211C182.989 81.7988 181.798 79.9434 180.098 79.9336C178.389 79.9434 177.218 81.7988 177.208 84.6211ZM208.014 91.0664V92.3555H192.116V91.0664H196.061V86.3887C194.577 85.6172 193.678 84.3672 193.678 82.7852C193.678 80.0996 196.315 78.332 200.026 78.3125C203.737 78.332 206.373 80.0996 206.373 82.7852C206.373 84.3379 205.504 85.5684 204.069 86.3398V91.0664H208.014ZM195.163 82.7852C195.153 84.7285 197.174 86.0273 200.026 86.0273C202.848 86.0273 204.889 84.7285 204.889 82.7852C204.889 80.8418 202.848 79.5625 200.026 79.582C197.174 79.5625 195.153 80.8418 195.163 82.7852ZM197.565 91.0664H202.526V86.9355C201.774 87.1309 200.934 87.2383 200.026 87.2383C199.137 87.2383 198.307 87.1406 197.565 86.9453V91.0664ZM15.616 108.363C15.5965 110.668 17.3055 112.738 19.8934 113.598L19.1121 114.828C17.1297 114.145 15.6062 112.729 14.8641 110.961C14.1121 112.924 12.5203 114.477 10.4598 115.238L9.65898 113.988C12.2762 113.1 14.0633 110.873 14.073 108.383V107.699H10.1277V106.449H19.4832V107.699H15.616V108.363ZM12.3543 122.348V116.254H23.3113V122.348H12.3543ZM13.8582 121.098H21.7879V117.484H13.8582V121.098ZM21.7879 115.453V105.219H23.3113V109.555H25.9285V110.844H23.3113V115.453H21.7879ZM32.5941 109.887C32.5844 113.061 34.7426 116.244 37.3012 117.406L36.3637 118.617C34.3812 117.66 32.6723 115.6 31.8422 113.129C31.0414 115.746 29.3324 117.943 27.3012 118.969L26.3246 117.68C28.9125 116.498 31.0512 113.178 31.0707 109.887V106.723H32.5941V109.887ZM39.1957 122.621V105.219H40.7387V122.621H39.1957ZM61.8434 105.238V122.602H60.3395V105.238H61.8434ZM47.4488 114.691C50.9156 114.672 55.2516 114.643 59.0895 114.223L59.1676 115.395C57.4977 115.629 55.7691 115.766 54.0699 115.854V122.055H52.5465V115.922C50.818 115.99 49.148 116 47.6441 116L47.4488 114.691ZM49.109 112.484V106.215H57.527V107.465H50.652V111.195H57.7613V112.484H49.109ZM82.0691 105.219V112.094H84.9793V113.383H82.0691V122.621H80.5457V105.219H82.0691ZM69.3934 118.266V106.918H77.4988V108.188H70.9168V116.977C74.0613 116.967 76.2781 116.83 78.866 116.352L79.0613 117.68C76.3367 118.168 74.0613 118.266 70.7605 118.266H69.3934ZM91.4887 109.887C91.4789 113.061 93.6371 116.244 96.1957 117.406L95.2582 118.617C93.2758 117.66 91.5668 115.6 90.7367 113.129C89.9359 115.746 88.227 117.943 86.1957 118.969L85.2191 117.68C87.807 116.498 89.9457 113.178 89.9652 109.887V106.723H91.4887V109.887ZM98.0902 122.621V105.219H99.6332V122.621H98.0902ZM112.593 109.887C112.584 113.061 114.742 116.244 117.3 117.406L116.363 118.617C114.38 117.66 112.671 115.6 111.841 113.129C111.041 115.746 109.332 117.943 107.3 118.969L106.324 117.68C108.912 116.498 111.05 113.178 111.07 109.887V106.723H112.593V109.887ZM119.195 122.621V105.219H120.738V122.621H119.195ZM137.13 113.363V114.613H131.759V119.105H139.005V120.395H123.107V119.105H130.255V114.613H125.138V106.645H136.954V107.895H126.681V113.363H137.13ZM148.464 108.227V109.477H139.753V108.227H143.366V105.746H144.889V108.227H148.464ZM140.378 114.594C140.378 112.289 141.95 110.658 144.108 110.648C146.296 110.658 147.858 112.289 147.878 114.594C147.858 116.928 146.296 118.568 144.108 118.578C141.95 118.568 140.378 116.928 140.378 114.594ZM141.745 114.594C141.745 116.137 142.731 117.24 144.108 117.23C145.495 117.24 146.511 116.137 146.511 114.594C146.511 113.07 145.495 111.957 144.108 111.938C142.731 111.957 141.745 113.07 141.745 114.594ZM149.362 121.723V105.648H150.807V112.543H153.112V105.219H154.577V122.582H153.112V113.812H150.807V121.723H149.362ZM172.375 119.086V120.355H156.477V119.086H163.625V115.336H158.352V106.449H159.895V109.594H168.918V106.449H170.422V115.336H165.129V119.086H172.375ZM159.895 114.086H168.918V110.844H159.895V114.086ZM178.318 110.16C178.318 112.924 179.666 115.902 181.971 117.27L181.092 118.461C179.412 117.445 178.211 115.59 177.605 113.471C176.971 115.785 175.682 117.777 173.943 118.832L172.967 117.68C175.369 116.273 176.834 113.197 176.834 110.219V106.859H178.318V110.16ZM180.057 112.758V111.449H183.006V105.59H184.451V121.703H183.006V112.758H180.057ZM186.561 122.582V105.219H188.045V122.582H186.561ZM205.746 119.066V120.355H189.847V119.066H193.793V114.389C192.308 113.617 191.41 112.367 191.41 110.785C191.41 108.1 194.046 106.332 197.757 106.312C201.468 106.332 204.105 108.1 204.105 110.785C204.105 112.338 203.236 113.568 201.8 114.34V119.066H205.746ZM192.894 110.785C192.884 112.729 194.906 114.027 197.757 114.027C200.58 114.027 202.621 112.729 202.621 110.785C202.621 108.842 200.58 107.562 197.757 107.582C194.906 107.562 192.884 108.842 192.894 110.785ZM195.296 119.066H200.257V114.936C199.505 115.131 198.666 115.238 197.757 115.238C196.869 115.238 196.039 115.141 195.296 114.945V119.066ZM209.345 106.859L209.208 117.016H207.568L207.431 106.859H209.345ZM207.138 119.848C207.118 119.164 207.704 118.598 208.388 118.598C209.081 118.598 209.648 119.164 209.638 119.848C209.648 120.541 209.081 121.107 208.388 121.117C207.704 121.107 207.118 120.541 207.138 119.848Z" fill="#9D9D9D"/>
</svg>
