<svg width="220" height="127" viewBox="0 0 220 127" fill="none" xmlns="http://www.w3.org/2000/svg">
<rect x="74" y="1" width="54.7606" height="66" rx="6" fill="white" stroke="#BDBDBD" stroke-width="2"/>
<path d="M113.549 23H84.1406" stroke="#BDBDBD" stroke-width="2" stroke-linecap="round" stroke-linejoin="round"/>
<path d="M113.549 31H84.1406" stroke="#BDBDBD" stroke-width="2" stroke-linecap="round" stroke-linejoin="round"/>
<path d="M92.2533 15H88.197H84.1406" stroke="#BDBDBD" stroke-width="2" stroke-linecap="round" stroke-linejoin="round"/>
<path d="M124.182 52.7483C131.597 52.7483 137.609 46.7369 137.609 39.3214C137.609 31.906 131.597 25.8945 124.182 25.8945C116.766 25.8945 110.755 31.906 110.755 39.3214C110.755 46.7369 116.766 52.7483 124.182 52.7483Z" fill="white" stroke="#BDBDBD" stroke-width="2" stroke-linecap="round" stroke-linejoin="round"/>
<path d="M114.72 39.6937C114.72 35.2475 117.67 31.4905 121.72 30.2734" stroke="#BDBDBD" stroke-width="2" stroke-linecap="round" stroke-linejoin="round"/>
<path d="M141.972 57.1128L133.916 49.0566" stroke="#BDBDBD" stroke-width="2" stroke-linecap="round" stroke-linejoin="round"/>
<path d="M33.4968 87.0098C35.7996 87.0186 37.4343 89.1367 37.4519 92.459C37.4343 95.79 35.7996 97.8994 33.4968 97.8906C31.1765 97.8994 29.5505 95.79 29.5593 92.459C29.5505 89.1367 31.1765 87.0186 33.4968 87.0098ZM30.8601 92.459C30.8689 94.999 31.95 96.6689 33.4968 96.6602C35.0613 96.6689 36.116 94.999 36.116 92.459C36.116 89.9189 35.0613 88.249 33.4968 88.2402C31.95 88.249 30.8689 89.9189 30.8601 92.459ZM40.0359 101.424V85.7969H41.407V92.0371H44.0261V93.2324H41.407V101.424H40.0359ZM49.9549 88.6973C49.9637 90.7979 51.6248 92.7139 53.9627 93.4785L53.2596 94.5508C51.4402 93.9355 49.9988 92.6523 49.2869 91C48.6014 92.7754 47.1424 94.1816 45.2791 94.8496L44.5584 93.7773C46.9051 92.9512 48.5574 90.9121 48.5662 88.6973V88.0293H44.91V86.9043H53.5584V88.0293H49.9549V88.6973ZM46.7205 97.2227V96.0801H57.2322V101.424H55.8611V97.2227H46.7205ZM55.8611 95.2539V85.7969H57.2322V95.2539H55.8611ZM70.4432 85.9902C73.9149 85.9902 75.954 86.957 75.9628 88.6973C75.954 90.3408 74.1698 91.29 71.0936 91.4043V92.5996H77.5624V93.7246H63.3241V92.5996H69.7401V91.4043C66.6815 91.2725 64.9061 90.332 64.9061 88.6973C64.9061 86.957 66.954 85.9902 70.4432 85.9902ZM65.0468 96.1152V95.043H75.7343V98.541H66.453V100.158H76.2089V101.248H65.0819V97.5215H74.3807V96.1152H65.0468ZM66.3475 88.6973C66.33 89.7695 67.8505 90.3496 70.4432 90.3672C73.036 90.3496 74.5477 89.7695 74.5565 88.6973C74.5477 87.6689 73.036 87.0625 70.4432 87.0449C67.8505 87.0625 66.33 87.6689 66.3475 88.6973ZM90.4345 85.7969V92.0195H93.0536V93.1797H90.4345V101.459H89.0634V85.7969H90.4345ZM78.956 88.3984V87.2559H86.0575V92.8457H80.3622V96.502C83.2626 96.5107 85.2929 96.3965 87.6572 95.957L87.7978 97.0996C85.3368 97.5479 83.2538 97.6621 80.2392 97.6797H78.9911V91.7031H84.6864V88.3984H78.956ZM107.596 94.1289V95.2715H93.3574V94.1289H99.791V92.4941C96.7939 92.3359 94.9394 91.2109 94.9394 89.3652C94.9394 87.4404 97.0839 86.2803 100.477 86.2715C103.834 86.2803 105.987 87.4404 105.996 89.3652C105.987 91.2109 104.124 92.3359 101.162 92.4941V94.1289H107.596ZM95.2031 101.09V96.5371H96.5918V99.9297H106.014V101.09H95.2031ZM96.3632 89.3652C96.3545 90.6396 97.9541 91.3691 100.477 91.3691C102.981 91.3691 104.581 90.6396 104.59 89.3652C104.581 88.1699 102.981 87.3965 100.477 87.3965C97.9541 87.3965 96.3545 88.1699 96.3632 89.3652ZM124.779 86.4824V87.4844C124.779 88.5391 124.779 89.8926 124.428 91.6504H126.66V92.7578H112.352V91.6504H123.039C123.399 89.9102 123.417 88.6357 123.408 87.6074H114.162V86.4824H124.779ZM114.057 95.4473V94.3398H124.832V98.2773H115.463V100.123H125.236V101.248H114.074V97.1875H123.461V95.4473H114.057ZM140.253 85.7969V101.459H138.864V85.7969H140.253ZM127.948 92.459C127.957 89.1367 129.609 87.0186 131.939 87.0098C134.259 87.0186 135.938 89.1367 135.929 92.459C135.938 95.79 134.259 97.8994 131.939 97.8906C129.609 97.8994 127.957 95.79 127.948 92.459ZM129.284 92.459C129.284 94.999 130.374 96.6689 131.939 96.6602C133.512 96.6689 134.593 94.999 134.593 92.459C134.593 89.9189 133.512 88.249 131.939 88.2402C130.374 88.249 129.284 89.9189 129.284 92.459ZM149.474 94.9727V96.9238H152.321V94.9727H153.605V101.213H148.173V94.9727H149.474ZM146.609 90.0859C146.6 87.9502 148.287 86.5 150.669 86.5C152.77 86.5 154.361 87.6865 154.659 89.4883H157.929V85.7969H159.318V94.0762H157.929V90.6309H154.668C154.396 92.4766 152.787 93.6895 150.669 93.6895C148.287 93.6895 146.6 92.2305 146.609 90.0859ZM147.927 90.0859C147.927 91.5186 149.061 92.5381 150.669 92.5469C152.242 92.5381 153.376 91.5186 153.376 90.0859C153.376 88.6621 152.242 87.6602 150.669 87.6602C149.061 87.6602 147.927 88.6621 147.927 90.0859ZM149.474 100.123H152.321V97.9785H149.474V100.123ZM153.816 100.281C155.696 99.499 156.69 97.7852 156.698 96.2031V94.8672H158.069V96.2031C158.052 97.8467 159.045 99.5781 160.952 100.281L160.232 101.336C158.79 100.765 157.85 99.6572 157.366 98.3652C156.874 99.6396 155.916 100.747 154.536 101.336L153.816 100.281ZM165.58 87.0098C167.707 87.0186 169.245 88.8467 169.456 91.7734H172.963V85.7969H174.334V101.459H172.963V92.916H169.474C169.324 95.9834 167.76 97.8994 165.58 97.8906C163.269 97.8994 161.652 95.79 161.66 92.459C161.652 89.1367 163.269 87.0186 165.58 87.0098ZM162.979 92.459C162.987 94.999 164.042 96.6689 165.58 96.6602C167.11 96.6689 168.182 94.999 168.182 92.459C168.182 89.9189 167.11 88.249 165.58 88.2402C164.042 88.249 162.987 89.9189 162.979 92.459ZM190.704 98.2598V99.4199H176.396V98.2598H179.947V94.0498C178.611 93.3555 177.802 92.2305 177.802 90.8066C177.802 88.3896 180.175 86.7988 183.515 86.7812C186.855 86.7988 189.228 88.3896 189.228 90.8066C189.228 92.2041 188.446 93.3115 187.154 94.0059V98.2598H190.704ZM179.138 90.8066C179.129 92.5557 180.948 93.7246 183.515 93.7246C186.055 93.7246 187.892 92.5557 187.892 90.8066C187.892 89.0576 186.055 87.9062 183.515 87.9238C180.948 87.9062 179.129 89.0576 179.138 90.8066ZM181.3 98.2598H185.765V94.542C185.088 94.7178 184.332 94.8145 183.515 94.8145C182.715 94.8145 181.968 94.7266 181.3 94.5508V98.2598ZM49.6033 114.154C49.6121 116.088 51.1766 117.89 53.4705 118.602L52.8201 119.674C51.0359 119.103 49.6473 117.898 48.9617 116.378C48.2937 118.092 46.8611 119.445 45.0154 120.096L44.3475 118.988C46.6414 118.224 48.241 116.299 48.2498 114.154V113.785H44.7166V112.66H48.2498V110.744H49.6385V112.66H53.1365V113.785H49.6033V114.154ZM46.1756 125.264C48.9002 124.789 51.4666 123.075 51.4842 120.904V120.57H52.8904V120.904C52.8816 123.119 55.4129 124.798 58.2166 125.264L57.6365 126.354C55.2723 125.932 53.1014 124.71 52.1697 122.882C51.2293 124.692 49.0496 125.94 46.6853 126.354L46.1756 125.264ZM52.6619 116.404V115.244H55.8436V110.797H57.2322V121.643H55.8436V116.404H52.6619ZM75.6991 111.482V112.484C75.6991 113.539 75.6991 114.893 75.3475 116.65H77.58V117.758H63.2714V116.65H73.9589C74.3192 114.91 74.3368 113.636 74.328 112.607H65.0819V111.482H75.6991ZM64.9764 120.447V119.34H75.7518V123.277H66.3827V125.123H76.1561V126.248H64.994V122.188H74.3807V120.447H64.9764ZM85.4072 111.078C88.8788 111.078 90.9179 112.036 90.9267 113.768C90.9179 115.543 88.8788 116.501 85.4072 116.51C81.9179 116.501 79.87 115.543 79.87 113.768C79.87 112.036 81.9179 111.078 85.4072 111.078ZM78.288 118.689V117.564H92.5263V118.689H78.288ZM80.0107 121.098V120.043H90.6982V123.541H81.4169V125.158H91.1728V126.248H80.0458V122.521H89.3447V121.098H80.0107ZM81.3114 113.768C81.2939 114.857 82.8144 115.455 85.4072 115.455C87.9999 115.455 89.5116 114.857 89.5204 113.768C89.5116 112.739 87.9999 112.124 85.4072 112.115C82.8144 112.124 81.2939 112.739 81.3114 113.768ZM109.499 110.814V114.4H111.872V115.561H109.499V119.639H108.128V110.814H109.499ZM98.0381 118.443V111.605H99.4268V117.283C101.659 117.274 103.953 117.099 106.476 116.58L106.651 117.74C103.997 118.276 101.633 118.435 99.2861 118.443H98.0381ZM99.6025 126.213V120.5H109.499V126.213H99.6025ZM100.956 125.088H108.163V121.59H100.956V125.088ZM120.227 112.502C120.227 113.39 120.147 114.26 119.972 115.104H123.865V110.779H125.236V126.424H123.865V120.412H119.453V119.27H123.865V116.229H119.69C118.794 119.129 116.729 121.678 113.037 123.471L112.316 122.346C116.474 120.333 118.548 117.318 118.838 113.627H113.002V112.502H120.227ZM141.624 123.277V124.42H127.316V123.277H133.749V119.902H129.003V111.904H130.392V114.734H138.513V111.904H139.866V119.902H135.103V123.277H141.624ZM130.392 118.777H138.513V115.859H130.392V118.777ZM146.973 115.244C146.973 117.731 148.186 120.412 150.26 121.643L149.469 122.715C147.957 121.801 146.876 120.131 146.331 118.224C145.76 120.307 144.6 122.1 143.035 123.049L142.156 122.012C144.318 120.746 145.637 117.978 145.637 115.297V112.273H146.973V115.244ZM148.537 117.582V116.404H151.192V111.131H152.492V125.633H151.192V117.582H148.537ZM154.391 126.424V110.797H155.727V126.424H154.391ZM171.657 123.26V124.42H157.349V123.26H160.9V119.05C159.564 118.355 158.755 117.23 158.755 115.807C158.755 113.39 161.128 111.799 164.468 111.781C167.808 111.799 170.181 113.39 170.181 115.807C170.181 117.204 169.399 118.312 168.107 119.006V123.26H171.657ZM160.091 115.807C160.082 117.556 161.902 118.725 164.468 118.725C167.008 118.725 168.845 117.556 168.845 115.807C168.845 114.058 167.008 112.906 164.468 112.924C161.902 112.906 160.082 114.058 160.091 115.807ZM162.253 123.26H166.718V119.542C166.041 119.718 165.285 119.814 164.468 119.814C163.668 119.814 162.921 119.727 162.253 119.551V123.26ZM174.897 112.273L174.774 121.414H173.297L173.174 112.273H174.897ZM172.91 123.963C172.893 123.348 173.42 122.838 174.035 122.838C174.659 122.838 175.169 123.348 175.16 123.963C175.169 124.587 174.659 125.097 174.035 125.105C173.42 125.097 172.893 124.587 172.91 123.963Z" fill="#9D9D9D"/>
</svg>
