<svg width="220" height="125" viewBox="0 0 220 125" fill="none" xmlns="http://www.w3.org/2000/svg">
<rect x="74" y="1" width="54.7606" height="66" rx="6" fill="white" stroke="#BDBDBD" stroke-width="2"/>
<path d="M113.549 23H84.1406" stroke="#BDBDBD" stroke-width="2" stroke-linecap="round" stroke-linejoin="round"/>
<path d="M113.549 31H84.1406" stroke="#BDBDBD" stroke-width="2" stroke-linecap="round" stroke-linejoin="round"/>
<path d="M92.2533 15H88.197H84.1406" stroke="#BDBDBD" stroke-width="2" stroke-linecap="round" stroke-linejoin="round"/>
<path d="M124.182 52.7483C131.597 52.7483 137.609 46.7369 137.609 39.3214C137.609 31.906 131.597 25.8945 124.182 25.8945C116.766 25.8945 110.755 31.906 110.755 39.3214C110.755 46.7369 116.766 52.7483 124.182 52.7483Z" fill="white" stroke="#BDBDBD" stroke-width="2" stroke-linecap="round" stroke-linejoin="round"/>
<path d="M114.72 39.6937C114.72 35.2475 117.67 31.4905 121.72 30.2734" stroke="#BDBDBD" stroke-width="2" stroke-linecap="round" stroke-linejoin="round"/>
<path d="M141.972 57.1128L133.916 49.0566" stroke="#BDBDBD" stroke-width="2" stroke-linecap="round" stroke-linejoin="round"/>
<path d="M23.9734 87.0098C26.2761 87.0186 27.9109 89.1367 27.9284 92.459C27.9109 95.79 26.2761 97.8994 23.9734 97.8906C21.653 97.8994 20.0271 95.79 20.0359 92.459C20.0271 89.1367 21.653 87.0186 23.9734 87.0098ZM21.3366 92.459C21.3454 94.999 22.4265 96.6689 23.9734 96.6602C25.5378 96.6689 26.5925 94.999 26.5925 92.459C26.5925 89.9189 25.5378 88.249 23.9734 88.2402C22.4265 88.249 21.3454 89.9189 21.3366 92.459ZM30.5124 101.424V85.7969H31.8835V92.0371H34.5027V93.2324H31.8835V101.424H30.5124ZM40.4314 88.6973C40.4402 90.7979 42.1013 92.7139 44.4392 93.4785L43.7361 94.5508C41.9168 93.9355 40.4753 92.6523 39.7634 91C39.0779 92.7754 37.6189 94.1816 35.7556 94.8496L35.0349 93.7773C37.3816 92.9512 39.0339 90.9121 39.0427 88.6973V88.0293H35.3865V86.9043H44.0349V88.0293H40.4314V88.6973ZM37.197 97.2227V96.0801H47.7087V101.424H46.3377V97.2227H37.197ZM46.3377 95.2539V85.7969H47.7087V95.2539H46.3377ZM68.0389 93.4082V94.5332H53.8006V93.4082H68.0389ZM55.3827 89.1719C55.3827 87.3174 57.5184 86.2012 60.9198 86.2012C64.3036 86.2012 66.4305 87.3174 66.4393 89.1719C66.4305 91.0352 64.3036 92.1338 60.9198 92.125C57.5184 92.1338 55.3827 91.0352 55.3827 89.1719ZM55.5233 98.6289C55.5145 96.8447 57.5272 95.8516 60.9198 95.8691C64.2684 95.8516 66.2811 96.8447 66.2987 98.6289C66.2811 100.439 64.2684 101.433 60.9198 101.424C57.5272 101.433 55.5145 100.439 55.5233 98.6289ZM56.8065 89.1719C56.7977 90.3408 58.3885 91.0352 60.9198 91.0352C63.4246 91.0352 65.0243 90.3408 65.033 89.1719C65.0243 88.0029 63.4246 87.3086 60.9198 87.3262C58.3885 87.3086 56.7977 88.0029 56.8065 89.1719ZM56.9295 98.6289C56.912 99.71 58.4149 100.334 60.9198 100.316C63.3983 100.334 64.9012 99.71 64.91 98.6289C64.9012 97.5391 63.3983 96.915 60.9198 96.9238C58.4149 96.915 56.912 97.5391 56.9295 98.6289ZM74.3719 89.998C74.3632 92.8545 76.3055 95.7197 78.6083 96.7656L77.7645 97.8555C75.9803 96.9941 74.4423 95.1396 73.6952 92.916C72.9745 95.2715 71.4364 97.249 69.6083 98.1719L68.7294 97.0117C71.0585 95.9482 72.9833 92.96 73.0009 89.998V87.1504H74.3719V89.998ZM80.3134 101.459V85.7969H81.702V101.459H80.3134ZM96.0507 85.7441V89.541H98.4238V90.6836H96.0507V94.3926H94.6796V85.7441H96.0507ZM83.8691 88.3281V87.2207H87.8417V85.6387H89.2128V87.2207H93.1855V88.3281H83.8691ZM84.7655 91.5977C84.7568 90.0156 86.2509 89.04 88.5273 89.0312C90.7948 89.04 92.2714 90.0156 92.289 91.5977C92.2714 93.1885 90.7948 94.1553 88.5273 94.1641C86.2509 94.1553 84.7568 93.1885 84.7655 91.5977ZM86.0839 96.2383V95.2012H96.0507V98.6641H87.4726V100.193H96.6308V101.248H86.1191V97.6445H94.6796V96.2383H86.0839ZM86.0839 91.5977C86.0751 92.5381 87.0419 93.127 88.5273 93.127C90.0038 93.127 90.9706 92.5381 90.9882 91.5977C90.9706 90.666 90.0038 90.0596 88.5273 90.0508C87.0419 90.0596 86.0751 90.666 86.0839 91.5977ZM108.383 89.998C108.374 92.8545 110.316 95.7197 112.619 96.7656L111.775 97.8555C109.991 96.9941 108.453 95.1396 107.706 92.916C106.985 95.2715 105.447 97.249 103.619 98.1719L102.74 97.0117C105.069 95.9482 106.994 92.96 107.012 89.998V87.1504H108.383V89.998ZM114.324 101.459V85.7969H115.713V101.459H114.324ZM130.8 85.7969V95.2715H129.411V91.7031H126.757V90.5605H129.411V85.7969H130.8ZM117.862 88.5742V87.4492H121.747V85.6562H123.101V87.4492H126.985V88.5742H117.862ZM118.794 92.1602C118.794 90.5254 120.297 89.3828 122.415 89.3828C124.542 89.3828 126.036 90.5254 126.054 92.1602C126.036 93.8477 124.542 94.9551 122.415 94.9551C120.297 94.9551 118.794 93.8477 118.794 92.1602ZM120.112 92.1602C120.112 93.1973 121.053 93.8828 122.415 93.9004C123.777 93.8828 124.718 93.1973 124.718 92.1602C124.718 91.1582 123.777 90.4551 122.415 90.4551C121.053 90.4551 120.112 91.1582 120.112 92.1602ZM120.587 101.213V96.1152H130.8V101.213H120.587ZM121.958 100.088H129.446V97.2227H121.958V100.088ZM145.746 85.7969V101.459H144.357V85.7969H145.746ZM133.441 92.459C133.45 89.1367 135.103 87.0186 137.432 87.0098C139.752 87.0186 141.431 89.1367 141.422 92.459C141.431 95.79 139.752 97.8994 137.432 97.8906C135.103 97.8994 133.45 95.79 133.441 92.459ZM134.777 92.459C134.777 94.999 135.867 96.6689 137.432 96.6602C139.005 96.6689 140.086 94.999 140.086 92.459C140.086 89.9189 139.005 88.249 137.432 88.2402C135.867 88.249 134.777 89.9189 134.777 92.459ZM154.967 94.9727V96.9238H157.815V94.9727H159.098V101.213H153.666V94.9727H154.967ZM152.102 90.0859C152.093 87.9502 153.78 86.5 156.162 86.5C158.263 86.5 159.854 87.6865 160.152 89.4883H163.422V85.7969H164.811V94.0762H163.422V90.6309H160.161C159.889 92.4766 158.28 93.6895 156.162 93.6895C153.78 93.6895 152.093 92.2305 152.102 90.0859ZM153.42 90.0859C153.42 91.5186 154.554 92.5381 156.162 92.5469C157.736 92.5381 158.869 91.5186 158.869 90.0859C158.869 88.6621 157.736 87.6602 156.162 87.6602C154.554 87.6602 153.42 88.6621 153.42 90.0859ZM154.967 100.123H157.815V97.9785H154.967V100.123ZM159.309 100.281C161.19 99.499 162.183 97.7852 162.192 96.2031V94.8672H163.563V96.2031C163.545 97.8467 164.538 99.5781 166.445 100.281L165.725 101.336C164.283 100.765 163.343 99.6572 162.86 98.3652C162.367 99.6396 161.409 100.747 160.029 101.336L159.309 100.281ZM171.073 87.0098C173.2 87.0186 174.738 88.8467 174.949 91.7734H178.456V85.7969H179.827V101.459H178.456V92.916H174.967C174.818 95.9834 173.253 97.8994 171.073 97.8906C168.762 97.8994 167.145 95.79 167.154 92.459C167.145 89.1367 168.762 87.0186 171.073 87.0098ZM168.472 92.459C168.481 94.999 169.535 96.6689 171.073 96.6602C172.603 96.6689 173.675 94.999 173.675 92.459C173.675 89.9189 172.603 88.249 171.073 88.2402C169.535 88.249 168.481 89.9189 168.472 92.459ZM196.197 98.2598V99.4199H181.889V98.2598H185.44V94.0498C184.104 93.3555 183.295 92.2305 183.295 90.8066C183.295 88.3896 185.668 86.7988 189.008 86.7812C192.348 86.7988 194.721 88.3896 194.721 90.8066C194.721 92.2041 193.939 93.3115 192.647 94.0059V98.2598H196.197ZM184.631 90.8066C184.622 92.5557 186.442 93.7246 189.008 93.7246C191.548 93.7246 193.385 92.5557 193.385 90.8066C193.385 89.0576 191.548 87.9062 189.008 87.9238C186.442 87.9062 184.622 89.0576 184.631 90.8066ZM186.793 98.2598H191.258V94.542C190.581 94.7178 189.825 94.8145 189.008 94.8145C188.208 94.8145 187.461 94.7266 186.793 94.5508V98.2598ZM198.558 100.105C197.943 100.097 197.415 99.5869 197.433 98.9629C197.415 98.3477 197.943 97.8379 198.558 97.8379C199.182 97.8379 199.692 98.3477 199.683 98.9629C199.692 99.5869 199.182 100.097 198.558 100.105Z" fill="#9D9D9D"/>
</svg>
