<svg width="220" height="127" viewBox="0 0 220 127" fill="none" xmlns="http://www.w3.org/2000/svg">
<rect x="74" y="1" width="54.7606" height="66" rx="6" fill="white" stroke="#BDBDBD" stroke-width="2"/>
<path d="M113.549 23H84.1406" stroke="#BDBDBD" stroke-width="2" stroke-linecap="round" stroke-linejoin="round"/>
<path d="M113.549 31H84.1406" stroke="#BDBDBD" stroke-width="2" stroke-linecap="round" stroke-linejoin="round"/>
<path d="M92.2533 15H88.197H84.1406" stroke="#BDBDBD" stroke-width="2" stroke-linecap="round" stroke-linejoin="round"/>
<path d="M124.182 52.7483C131.597 52.7483 137.609 46.7369 137.609 39.3214C137.609 31.906 131.597 25.8945 124.182 25.8945C116.766 25.8945 110.755 31.906 110.755 39.3214C110.755 46.7369 116.766 52.7483 124.182 52.7483Z" fill="white" stroke="#BDBDBD" stroke-width="2" stroke-linecap="round" stroke-linejoin="round"/>
<path d="M114.72 39.6937C114.72 35.2475 117.67 31.4905 121.72 30.2734" stroke="#BDBDBD" stroke-width="2" stroke-linecap="round" stroke-linejoin="round"/>
<path d="M141.972 57.1128L133.916 49.0566" stroke="#BDBDBD" stroke-width="2" stroke-linecap="round" stroke-linejoin="round"/>
<path d="M25.9885 87.0098C28.2913 87.0186 29.926 89.1367 29.9436 92.459C29.926 95.79 28.2913 97.8994 25.9885 97.8906C23.6682 97.8994 22.0422 95.79 22.051 92.459C22.0422 89.1367 23.6682 87.0186 25.9885 87.0098ZM23.3518 92.459C23.3606 94.999 24.4416 96.6689 25.9885 96.6602C27.553 96.6689 28.6077 94.999 28.6077 92.459C28.6077 89.9189 27.553 88.249 25.9885 88.2402C24.4416 88.249 23.3606 89.9189 23.3518 92.459ZM32.5276 101.424V85.7969H33.8987V92.0371H36.5178V93.2324H33.8987V101.424H32.5276ZM42.4466 88.6973C42.4554 90.7979 44.1165 92.7139 46.4544 93.4785L45.7513 94.5508C43.9319 93.9355 42.4905 92.6523 41.7786 91C41.093 92.7754 39.6341 94.1816 37.7708 94.8496L37.0501 93.7773C39.3968 92.9512 41.0491 90.9121 41.0579 88.6973V88.0293H37.4016V86.9043H46.0501V88.0293H42.4466V88.6973ZM39.2122 97.2227V96.0801H49.7239V101.424H48.3528V97.2227H39.2122ZM48.3528 95.2539V85.7969H49.7239V95.2539H48.3528ZM70.0716 93.2324V94.3926H55.8158V93.2324H70.0716ZM57.5384 98.5762C57.5297 96.7832 59.5599 95.7637 62.9349 95.7637C66.2836 95.7637 68.2963 96.7832 68.3138 98.5762C68.2963 100.387 66.2836 101.389 62.9349 101.389C59.5599 101.389 57.5297 100.387 57.5384 98.5762ZM57.6263 91.7383V86.4297H68.2963V87.5898H58.9798V90.6133H68.4017V91.7383H57.6263ZM58.9447 98.5762C58.9271 99.6748 60.43 100.299 62.9349 100.299C65.4134 100.299 66.9164 99.6748 66.9252 98.5762C66.9164 97.4863 65.4134 96.8535 62.9349 96.8359C60.43 96.8535 58.9271 97.4863 58.9447 98.5762ZM85.1234 94.4102V95.5527H70.8148V94.4102H77.2836V92.7578H72.6781V88.9434H81.8891V87.3262H72.6254V86.2012H83.2777V89.9805H74.0492V91.6504H83.6117V92.7578H78.6371V94.4102H85.1234ZM72.4145 97.873V96.748H83.3656V101.283H81.977V97.873H72.4145ZM94.937 90.9297V92.0547H91.7729V94.2344C93.2319 94.1729 94.6909 94.0674 96.0444 93.918L96.1498 94.9375C92.7836 95.4033 89.0659 95.5 86.1303 95.5L85.9194 94.375C87.2905 94.3662 88.8286 94.3486 90.4018 94.2959V92.0547H87.3432V86.8164H94.8139V87.959H88.7319V90.9297H94.937ZM88.5913 101.09V96.6953H89.9623V99.9297H99.2436V101.09H88.5913ZM97.3452 97.5039V85.8145H98.7338V97.5039H97.3452ZM117.728 85.7969V93.918H116.375V85.7969H117.728ZM105.072 92.8457C107.401 92.0723 109.071 90.1562 109.08 88.0117V87.8359H105.423V86.6934H114.072V87.8359H110.468V88.0117C110.477 90.042 112.138 91.835 114.494 92.5293L113.808 93.6016C111.962 93.0215 110.495 91.7822 109.8 90.1826C109.124 91.9316 107.629 93.2939 105.722 93.9355L105.072 92.8457ZM107.585 95.7637V94.6738H117.746V98.4004H108.974V100.141H118.308V101.248H107.621V97.3633H116.375V95.7637H107.585ZM134.151 93.7949V94.9375H127.788V98.1367H126.417V94.9375H119.842V93.7949H134.151ZM121.67 101.09V96.5898H123.059V99.9297H132.551V101.09H121.67ZM121.706 92.002V86.5703H132.288V92.002H121.706ZM123.059 90.8945H130.917V87.6602H123.059V90.8945ZM147.761 85.7969V101.459H146.373V85.7969H147.761ZM135.457 92.459C135.465 89.1367 137.118 87.0186 139.447 87.0098C141.767 87.0186 143.446 89.1367 143.437 92.459C143.446 95.79 141.767 97.8994 139.447 97.8906C137.118 97.8994 135.465 95.79 135.457 92.459ZM136.793 92.459C136.793 94.999 137.882 96.6689 139.447 96.6602C141.02 96.6689 142.101 94.999 142.101 92.459C142.101 89.9189 141.02 88.249 139.447 88.2402C137.882 88.249 136.793 89.9189 136.793 92.459ZM156.982 94.9727V96.9238H159.83V94.9727H161.113V101.213H155.681V94.9727H156.982ZM154.117 90.0859C154.108 87.9502 155.796 86.5 158.177 86.5C160.278 86.5 161.869 87.6865 162.168 89.4883H165.437V85.7969H166.826V94.0762H165.437V90.6309H162.176C161.904 92.4766 160.296 93.6895 158.177 93.6895C155.796 93.6895 154.108 92.2305 154.117 90.0859ZM155.435 90.0859C155.435 91.5186 156.569 92.5381 158.177 92.5469C159.751 92.5381 160.884 91.5186 160.884 90.0859C160.884 88.6621 159.751 87.6602 158.177 87.6602C156.569 87.6602 155.435 88.6621 155.435 90.0859ZM156.982 100.123H159.83V97.9785H156.982V100.123ZM161.324 100.281C163.205 99.499 164.198 97.7852 164.207 96.2031V94.8672H165.578V96.2031C165.56 97.8467 166.553 99.5781 168.461 100.281L167.74 101.336C166.299 100.765 165.358 99.6572 164.875 98.3652C164.383 99.6396 163.424 100.747 162.045 101.336L161.324 100.281ZM173.089 87.0098C175.216 87.0186 176.754 88.8467 176.965 91.7734H180.471V85.7969H181.842V101.459H180.471V92.916H176.982C176.833 95.9834 175.268 97.8994 173.089 97.8906C170.777 97.8994 169.16 95.79 169.169 92.459C169.16 89.1367 170.777 87.0186 173.089 87.0098ZM170.487 92.459C170.496 94.999 171.551 96.6689 173.089 96.6602C174.618 96.6689 175.69 94.999 175.69 92.459C175.69 89.9189 174.618 88.249 173.089 88.2402C171.551 88.249 170.496 89.9189 170.487 92.459ZM198.213 98.2598V99.4199H183.904V98.2598H187.455V94.0498C186.119 93.3555 185.31 92.2305 185.31 90.8066C185.31 88.3896 187.683 86.7988 191.023 86.7812C194.363 86.7988 196.736 88.3896 196.736 90.8066C196.736 92.2041 195.954 93.3115 194.662 94.0059V98.2598H198.213ZM186.646 90.8066C186.637 92.5557 188.457 93.7246 191.023 93.7246C193.563 93.7246 195.4 92.5557 195.4 90.8066C195.4 89.0576 193.563 87.9062 191.023 87.9238C188.457 87.9062 186.637 89.0576 186.646 90.8066ZM188.808 98.2598H193.273V94.542C192.596 94.7178 191.841 94.8145 191.023 94.8145C190.223 94.8145 189.476 94.7266 188.808 94.5508V98.2598ZM41.6882 111.482V112.59C41.6882 113.768 41.6882 115.209 41.2927 117.072H43.5691V118.197H37.0476V120.658C40.0359 120.781 41.8201 121.801 41.8289 123.506C41.8201 125.36 39.7634 126.389 36.3796 126.389C32.9519 126.389 30.9041 125.36 30.8953 123.506C30.9041 121.801 32.6795 120.79 35.6941 120.658V118.197H29.2605V117.072H39.9041C40.3259 115.174 40.3259 113.803 40.3171 112.607H31.0711V111.482H41.6882ZM32.3015 123.506C32.2839 124.631 33.822 125.272 36.3796 125.281C38.8845 125.272 40.4226 124.631 40.4402 123.506C40.4226 122.398 38.8845 121.766 36.3796 121.748C33.822 121.766 32.2839 122.398 32.3015 123.506ZM56.7049 111.641V112.801C56.7049 114.014 56.7049 115.438 56.2918 117.389H58.5857V118.531H44.2771V117.389H54.9031C55.3426 115.42 55.3426 114.014 55.3338 112.801V112.783H46.0877V111.641H56.7049ZM46.035 126.213V120.693H56.7752V126.213H46.035ZM47.4061 125.088H55.4041V121.783H47.4061V125.088ZM71.5106 110.814V115.965H73.8661V117.125H71.5106V122.521H70.1395V110.814H71.5106ZM59.3289 113.855V112.73H63.3016V110.814H64.6727V112.73H68.6453V113.855H59.3289ZM60.2254 117.635C60.2166 115.859 61.7284 114.717 63.9871 114.717C66.2196 114.717 67.7313 115.859 67.7489 117.635C67.7313 119.393 66.2196 120.526 63.9871 120.518C61.7284 120.526 60.2166 119.393 60.2254 117.635ZM61.5438 117.635C61.535 118.733 62.5106 119.445 63.9871 119.428C65.4461 119.445 66.4305 118.733 66.4481 117.635C66.4305 116.519 65.4461 115.798 63.9871 115.807C62.5106 115.798 61.535 116.519 61.5438 117.635ZM61.7371 126.09V121.59H63.0907V124.93H72.2313V126.09H61.7371ZM91.2431 110.797V119.955H89.8544V115.877H86.6904V114.717H89.8544V110.797H91.2431ZM78.3583 118.707C80.6611 117.89 82.331 115.798 82.331 113.574V112.959H78.7978V111.816H87.2177V112.959H83.7197V113.574C83.7197 115.587 85.2841 117.538 87.5693 118.355L86.8486 119.445C85.0907 118.804 83.7284 117.494 83.0517 115.877C82.3749 117.688 80.9335 119.12 79.079 119.797L78.3583 118.707ZM81.0302 126.213V120.729H91.2431V126.213H81.0302ZM82.4013 125.088H89.8896V121.836H82.4013V125.088ZM100.424 111.078C103.895 111.078 105.935 112.036 105.943 113.768C105.935 115.543 103.895 116.501 100.424 116.51C96.9345 116.501 94.8867 115.543 94.8867 113.768C94.8867 112.036 96.9345 111.078 100.424 111.078ZM93.3046 118.689V117.564H107.543V118.689H93.3046ZM95.0273 121.098V120.043H105.715V123.541H96.4336V125.158H106.189V126.248H95.0625V122.521H104.361V121.098H95.0273ZM96.3281 113.768C96.3105 114.857 97.831 115.455 100.424 115.455C103.017 115.455 104.528 114.857 104.537 113.768C104.528 112.739 103.017 112.124 100.424 112.115C97.831 112.124 96.3105 112.739 96.3281 113.768ZM124.516 110.814V114.4H126.889V115.561H124.516V119.639H123.145V110.814H124.516ZM113.055 118.443V111.605H114.443V117.283C116.676 117.274 118.97 117.099 121.492 116.58L121.668 117.74C119.014 118.276 116.649 118.435 114.303 118.443H113.055ZM114.619 126.213V120.5H124.516V126.213H114.619ZM115.973 125.088H123.18V121.59H115.973V125.088ZM135.243 112.502C135.243 113.39 135.164 114.26 134.988 115.104H138.882V110.779H140.253V126.424H138.882V120.412H134.47V119.27H138.882V116.229H134.707C133.811 119.129 131.745 121.678 128.054 123.471L127.333 122.346C131.49 120.333 133.565 117.318 133.855 113.627H128.019V112.502H135.243ZM156.641 123.277V124.42H142.332V123.277H148.766V119.902H144.02V111.904H145.408V114.734H153.529V111.904H154.883V119.902H150.119V123.277H156.641ZM145.408 118.777H153.529V115.859H145.408V118.777ZM161.989 115.244C161.989 117.731 163.202 120.412 165.277 121.643L164.486 122.715C162.974 121.801 161.893 120.131 161.348 118.224C160.777 120.307 159.616 122.1 158.052 123.049L157.173 122.012C159.335 120.746 160.653 117.978 160.653 115.297V112.273H161.989V115.244ZM163.554 117.582V116.404H166.208V111.131H167.509V125.633H166.208V117.582H163.554ZM169.407 126.424V110.797H170.743V126.424H169.407ZM186.674 123.26V124.42H172.365V123.26H175.916V119.05C174.58 118.355 173.772 117.23 173.772 115.807C173.772 113.39 176.145 111.799 179.485 111.781C182.824 111.799 185.197 113.39 185.197 115.807C185.197 117.204 184.415 118.312 183.123 119.006V123.26H186.674ZM175.108 115.807C175.099 117.556 176.918 118.725 179.485 118.725C182.025 118.725 183.862 117.556 183.862 115.807C183.862 114.058 182.025 112.906 179.485 112.924C176.918 112.906 175.099 114.058 175.108 115.807ZM177.27 123.26H181.735V119.542C181.058 119.718 180.302 119.814 179.485 119.814C178.685 119.814 177.938 119.727 177.27 119.551V123.26ZM189.913 112.273L189.79 121.414H188.314L188.191 112.273H189.913ZM187.927 123.963C187.909 123.348 188.437 122.838 189.052 122.838C189.676 122.838 190.186 123.348 190.177 123.963C190.186 124.587 189.676 125.097 189.052 125.105C188.437 125.097 187.909 124.587 187.927 123.963Z" fill="#9D9D9D"/>
</svg>
