<svg width="24" height="24" viewBox="0 0 24 24" fill="none" xmlns="http://www.w3.org/2000/svg">
<path d="M5.76794 9.89258C5.52824 9.89258 5.31517 9.98703 5.15536 10.1624C4.98225 10.3379 4.90234 10.5537 4.90234 10.8101C4.90234 11.0665 4.98225 11.2689 5.15536 11.4578C5.32848 11.6332 5.52824 11.7277 5.76794 11.7277C6.00765 11.7277 6.22072 11.6332 6.39384 11.4578C6.56696 11.2824 6.66017 11.0665 6.66017 10.8101C6.66017 10.5537 6.56696 10.3379 6.39384 10.1624C6.22072 9.97354 6.02096 9.89258 5.76794 9.89258Z" fill="#BDBDBD"/>
<path d="M13.2386 9.87891C12.9989 9.87891 12.7859 9.97336 12.6261 10.1488C12.4529 10.3242 12.373 10.5401 12.373 10.7964C12.373 11.0528 12.4529 11.2552 12.6261 11.4441C12.7992 11.6195 12.9989 11.714 13.2386 11.714C13.4783 11.714 13.6914 11.6195 13.8645 11.4441C14.0377 11.2687 14.1309 11.0528 14.1309 10.7964C14.1309 10.5401 14.0377 10.3377 13.8645 10.1488C13.7047 9.95987 13.4917 9.87891 13.2386 9.87891Z" fill="#BDBDBD"/>
<path d="M18.2318 9.89258C17.9921 9.89258 17.779 9.98703 17.6192 10.1624C17.4461 10.3379 17.3662 10.5537 17.3662 10.8101C17.3662 11.0665 17.4461 11.2689 17.6192 11.4578C17.7924 11.6332 17.9921 11.7277 18.2318 11.7277C18.4715 11.7277 18.6846 11.6332 18.8577 11.4578C19.0308 11.2824 19.1241 11.0665 19.1241 10.8101C19.1241 10.5537 19.0308 10.3379 18.8577 10.1624C18.6846 9.97354 18.4715 9.89258 18.2318 9.89258Z" fill="#BDBDBD"/>
<path d="M20.4431 3.22656H3.55729C2.26555 3.22656 1.2002 4.30602 1.2002 5.61487V15.2895C1.2002 16.5984 2.26555 17.6778 3.55729 17.6778H10.1891C10.1891 17.6778 11.4675 21.2266 11.9336 21.2266C12.3997 21.2266 13.7847 17.6778 13.7847 17.6778H20.4431C21.7348 17.6778 22.8002 16.5984 22.8002 15.2895V5.61487C22.8002 4.30602 21.7348 3.22656 20.4431 3.22656ZM7.47245 12.1591C7.13953 12.5369 6.62017 12.6988 6.06086 12.6988C5.55482 12.6988 5.18195 12.5504 4.91561 12.3345H4.90229V12.6044H3.63719V7.00467H4.90229V9.1501H4.92893C5.27516 8.85325 5.72794 8.7588 6.26061 8.73181C6.71339 8.71832 7.1928 9.00167 7.48577 9.33901C7.76542 9.67634 7.97849 10.2026 7.97849 10.7828C7.97849 11.417 7.81869 11.7813 7.47245 12.1591ZM10.2024 12.6583H8.91068C8.91068 12.6583 8.91068 9.71682 8.91068 9.19058C8.91068 8.39448 8.28478 8.28653 8.28478 8.28653V6.89673C8.28478 6.89673 10.0959 7.00467 10.2024 9.23106C10.2024 9.86524 10.2024 12.6583 10.2024 12.6583ZM15.2762 11.5924C15.1696 11.8488 15.0098 12.0646 14.7967 12.267C14.597 12.4559 14.3573 12.6044 14.0909 12.7123C13.8246 12.8203 13.545 12.8742 13.252 12.8742C12.959 12.8742 12.6794 12.8203 12.4263 12.7123C12.16 12.6044 11.9203 12.4559 11.7205 12.267C11.5075 12.0646 11.3477 11.8353 11.2411 11.5924C11.1346 11.3495 11.0813 11.0796 11.0813 10.7963C11.0813 10.5129 11.1346 10.2565 11.2411 10.0002C11.3477 9.7573 11.5075 9.52791 11.7205 9.32551C11.9336 9.13661 12.16 8.98818 12.4263 8.88024C12.6927 8.77229 12.9723 8.71832 13.252 8.71832C13.545 8.71832 13.8246 8.77229 14.0909 8.88024C14.3573 8.98818 14.597 9.13661 14.7967 9.32551C15.0098 9.52791 15.1563 9.7438 15.2762 10.0002C15.3827 10.2565 15.436 10.5129 15.436 10.7963C15.436 11.0796 15.3827 11.336 15.2762 11.5924ZM20.3632 12.1456C20.3632 13.1306 20.1768 13.7243 19.7506 14.1426C19.2313 14.6419 18.4988 14.6688 17.8863 14.5879V13.5759C18.4056 13.6299 19.1114 13.279 19.1114 12.6044V12.348H19.0981C18.8051 12.7528 18.3923 12.9012 17.8197 12.9012C17.3003 12.9012 16.8475 12.7123 16.5413 12.348C16.235 11.9837 16.0885 11.4979 16.0885 10.8907C16.0885 10.2026 16.2616 9.66284 16.5945 9.25805C16.9408 8.85325 17.4202 8.66434 17.9795 8.66434C18.4722 8.66434 18.7918 8.78578 19.0981 9.06914H19.1114V8.7588H20.3765V12.1456H20.3632Z" fill="#BDBDBD"/>
</svg>
